<?xml version="1.0" encoding="utf-8"?>
<!-- Designed by Vexels.com - 2016 All Rights Reserved - https://vexels.com/terms-and-conditions/  -->

<svg version="1.0" id="Capa_1" xmlns="http://www.w3.org/2000/svg" xmlns:xlink="http://www.w3.org/1999/xlink" x="0px" y="0px"
	 width="1200px" height="1200px" viewBox="0 0 1200 1200" enable-background="new 0 0 1200 1200" xml:space="preserve">
<g>
	<path fill="#414042" d="M1082.231,295.299c0,39.368,0,607.347,0,607.347c-396.834,0-964.462,0-964.462,0
		c0-239.892,0-577.384,0-607.347H1082.231L1082.231,295.299z"/>
	<g>
		<path fill="#FFFFFF" d="M671.298,301.016c0,33.888,0,197.027,0,197.027h399.998v203.25H671.298v203.408H511.123V701.293
			c0,0-329.302,0-390.286,0v-203.25c60.985,0,390.286,0,390.286,0s0-163.139,0-197.027H671.298L671.298,301.016z"/>
		<path fill="#FFFFFF" d="M228.357,301.016c94.139,59.769,842.939,535.629,842.939,535.629v68.056H963.609
			c0,0-748.87-476.06-842.772-535.428c0,0,0-50.435,0-68.257H228.357L228.357,301.016z"/>
		<path fill="#FFFFFF" d="M954.161,301.016c-87.968,55.941-745.697,473.796-833.324,529.091v74.594c26.406,0,97.906,0,97.906,0
			l852.554-541.757c0,0,0-45.164,0-61.928H954.161L954.161,301.016z"/>
		<path fill="#414042" d="M639.176,301.016c0,37.917,0,237.951,0,237.951h432.12V660.56h-432.12v244.14h-95.852V660.56
			c0,0-358.583,0-422.488,0V538.966c63.905,0,422.488,0,422.488,0s0-200.033,0-237.951H639.176L639.176,301.016z"/>
		<path fill="#414042" d="M121.082,301.016c53.397,33.888,310.168,197.027,310.168,197.027h-71.491
			c0,0-193.032-122.546-238.922-151.671c0,0,0-43.188,0-45.356H121.082L121.082,301.016z"/>
		<path fill="#414042" d="M989.77,301.016c-53.38,33.888-310.316,197.027-310.316,197.027h71.64
			c0,0,256.613-163.139,310.333-197.027H989.77L989.77,301.016z"/>
		<path fill="#414042" d="M1071.296,904.701L751.094,701.293h71.491l248.711,158.043V904.701L1071.296,904.701z M120.836,904.701
			c19.641,0,61.955,0,61.955,0l319.949-203.408h-71.491c0,0-256.937,163.217-310.413,197.298V904.701L120.836,904.701z"/>
	</g>
</g>
</svg>
