<?xml version="1.0" encoding="UTF-8"?>
<!DOCTYPE svg PUBLIC "-//W3C//DTD SVG 1.1//EN" "http://www.w3.org/Graphics/SVG/1.1/DTD/svg11.dtd">
<svg xmlns="http://www.w3.org/2000/svg" version="1.1" width="1000px" height="1000px" style="shape-rendering:geometricPrecision; text-rendering:geometricPrecision; image-rendering:optimizeQuality; fill-rule:evenodd; clip-rule:evenodd" xmlns:xlink="http://www.w3.org/1999/xlink">
<g><path style="opacity:0.999" fill="#fefffe" d="M 509.5,-0.5 C 510.5,-0.5 511.5,-0.5 512.5,-0.5C 636.299,123.799 760.299,247.965 884.5,372C 883.501,581.097 883.167,790.264 883.5,999.5C 794.833,999.5 706.167,999.5 617.5,999.5C 617.5,868.5 617.5,737.5 617.5,606.5C 546.833,606.5 476.167,606.5 405.5,606.5C 405.5,737.5 405.5,868.5 405.5,999.5C 316.5,999.5 227.5,999.5 138.5,999.5C 138.833,790.264 138.499,581.097 137.5,372C 261.701,247.965 385.701,123.799 509.5,-0.5 Z"/></g>
</svg>
