<?xml version="1.0" encoding="UTF-8"?>
<!DOCTYPE svg PUBLIC "-//W3C//DTD SVG 1.1//EN" "http://www.w3.org/Graphics/SVG/1.1/DTD/svg11.dtd">
<svg xmlns="http://www.w3.org/2000/svg" version="1.1" width="1000px" height="1000px" style="shape-rendering:geometricPrecision; text-rendering:geometricPrecision; image-rendering:optimizeQuality; fill-rule:evenodd; clip-rule:evenodd" xmlns:xlink="http://www.w3.org/1999/xlink">
<g><path style="opacity:0.985" fill="#fefefe" d="M 467.5,-0.5 C 488.833,-0.5 510.167,-0.5 531.5,-0.5C 688.239,13.4312 813.406,83.0979 907,208.5C 961.532,286.257 992.366,372.591 999.5,467.5C 999.5,488.833 999.5,510.167 999.5,531.5C 985.569,688.239 915.902,813.406 790.5,907C 712.743,961.532 626.409,992.366 531.5,999.5C 510.5,999.5 489.5,999.5 468.5,999.5C 311.352,985.864 185.852,916.197 92,790.5C 37.4675,712.743 6.63421,626.409 -0.5,531.5C -0.5,510.5 -0.5,489.5 -0.5,468.5C 13.1365,311.352 82.8031,185.852 208.5,92C 286.257,37.4675 372.591,6.63421 467.5,-0.5 Z M 470.5,64.5 C 620.672,58.8601 743.839,113.193 840,227.5C 923.059,336.082 951.393,457.749 925,592.5C 897.446,709.655 833.613,801.155 733.5,867C 620.106,936.092 499.44,952.425 371.5,916C 243.605,874.106 152.439,791.606 98,668.5C 59.9653,575.223 53.9653,479.89 80,382.5C 122.623,242.208 212.123,145.041 348.5,91C 388.138,76.7526 428.805,67.9193 470.5,64.5 Z"/></g>
<g><path style="opacity:0.99" fill="#fefefe" d="M 475.5,225.5 C 491.17,225.333 506.837,225.5 522.5,226C 537.671,228.504 546.504,237.337 549,252.5C 549.667,273.167 549.667,293.833 549,314.5C 546.473,329.027 537.973,337.527 523.5,340C 507.833,340.667 492.167,340.667 476.5,340C 461,337.833 452.167,329 450,313.5C 449.055,291.458 449.389,269.458 451,247.5C 455.157,235.676 463.324,228.342 475.5,225.5 Z"/></g>
<g><path style="opacity:0.997" fill="#fefefe" d="M 475.5,385.5 C 491.17,385.333 506.837,385.5 522.5,386C 537.671,388.504 546.504,397.337 549,412.5C 549.667,532.167 549.667,651.833 549,771.5C 546.473,786.027 537.973,794.527 523.5,797C 507.833,797.667 492.167,797.667 476.5,797C 461,794.833 452.167,786 450,770.5C 449.333,651.167 449.333,531.833 450,412.5C 451.229,403.53 455.396,396.364 462.5,391C 466.741,388.651 471.075,386.818 475.5,385.5 Z"/></g>
</svg>
