<?xml version="1.0" encoding="UTF-8"?>
<!DOCTYPE svg PUBLIC "-//W3C//DTD SVG 1.1//EN" "http://www.w3.org/Graphics/SVG/1.1/DTD/svg11.dtd">
<svg xmlns="http://www.w3.org/2000/svg" version="1.1" width="1000px" height="1000px" style="shape-rendering:geometricPrecision; text-rendering:geometricPrecision; image-rendering:optimizeQuality; fill-rule:evenodd; clip-rule:evenodd" xmlns:xlink="http://www.w3.org/1999/xlink">
<g><path style="opacity:0.998" fill="#fefffe" d="M 309.5,-0.5 C 539.5,-0.5 769.5,-0.5 999.5,-0.5C 999.5,273.5 999.5,547.5 999.5,821.5C 987.668,904.172 942.668,960.339 864.5,990C 850.299,994.404 835.965,997.571 821.5,999.5C 808.5,999.5 795.5,999.5 782.5,999.5C 705.367,988.863 650.534,948.196 618,877.5C 590.506,802.473 601.506,733.806 651,671.5C 704.005,614.721 768.839,593.555 845.5,608C 869.338,613.423 891.338,622.923 911.5,636.5C 912.5,473.168 912.833,309.835 912.5,146.5C 740.167,146.5 567.833,146.5 395.5,146.5C 395.667,371.5 395.5,596.5 395,821.5C 384.458,899.452 343.292,954.285 271.5,986C 253.922,992.728 235.922,997.228 217.5,999.5C 204.5,999.5 191.5,999.5 178.5,999.5C 101.367,988.863 46.5335,948.196 14,877.5C 6.94416,859.272 2.11082,840.606 -0.5,821.5C -0.5,808.5 -0.5,795.5 -0.5,782.5C 9.25795,707.247 48.2579,653.081 116.5,620C 165.527,599.888 215.193,598.221 265.5,615C 281.083,620.541 295.583,628.041 309,637.5C 309.5,424.834 309.667,212.167 309.5,-0.5 Z"/></g>
</svg>
