<?xml version="1.0" encoding="UTF-8"?>
<!DOCTYPE svg PUBLIC "-//W3C//DTD SVG 1.1//EN" "http://www.w3.org/Graphics/SVG/1.1/DTD/svg11.dtd">
<svg xmlns="http://www.w3.org/2000/svg" version="1.1" width="1000px" height="1000px" style="shape-rendering:geometricPrecision; text-rendering:geometricPrecision; image-rendering:optimizeQuality; fill-rule:evenodd; clip-rule:evenodd" xmlns:xlink="http://www.w3.org/1999/xlink">
<g><path style="opacity:0.997" fill="#fefffe" d="M 267.5,-0.5 C 464.167,-0.5 660.833,-0.5 857.5,-0.5C 889.82,5.65426 908.987,24.9876 915,57.5C 915.667,318.833 915.667,580.167 915,841.5C 907.469,878.191 884.969,897.524 847.5,899.5C 847.5,882.5 847.5,865.5 847.5,848.5C 858.856,847.976 864.689,841.976 865,830.5C 865.667,576.5 865.667,322.5 865,68.5C 864.657,55.8233 858.157,49.6566 845.5,50C 656.833,49.3333 468.167,49.3333 279.5,50C 265.608,50.896 258.942,58.396 259.5,72.5C 242.833,72.5 226.167,72.5 209.5,72.5C 209.671,32.687 229.004,8.35364 267.5,-0.5 Z"/></g>
<g><path style="opacity:0.998" fill="#fefffe" d="M 759.5,999.5 C 562.833,999.5 366.167,999.5 169.5,999.5C 137.18,993.346 118.013,974.012 112,941.5C 111.005,678.138 111.338,414.805 113,151.5C 120.704,122.13 139.537,104.963 169.5,100C 366.167,99.3333 562.833,99.3333 759.5,100C 789.463,104.963 808.296,122.13 816,151.5C 817.662,414.805 817.995,678.138 817,941.5C 810.987,974.012 791.82,993.346 759.5,999.5 Z M 181.5,149.5 C 370.167,149.333 558.834,149.5 747.5,150C 760.157,149.657 766.657,155.823 767,168.5C 767.667,422.5 767.667,676.5 767,930.5C 766.5,942.333 760.333,948.5 748.5,949C 559.167,949.667 369.833,949.667 180.5,949C 167.883,948.715 161.717,942.215 162,929.5C 161.333,676.167 161.333,422.833 162,169.5C 162.343,156.659 168.843,149.992 181.5,149.5 Z"/></g>
<g><path style="opacity:1" fill="#fefffe" d="M 209.5,232.5 C 301.167,232.5 392.833,232.5 484.5,232.5C 484.5,317.167 484.5,401.833 484.5,486.5C 392.833,486.5 301.167,486.5 209.5,486.5C 209.5,401.833 209.5,317.167 209.5,232.5 Z"/></g>
<g><path style="opacity:1" fill="#fefffe" d="M 540.5,241.5 C 595.5,241.5 650.5,241.5 705.5,241.5C 705.5,256.833 705.5,272.167 705.5,287.5C 650.5,287.5 595.5,287.5 540.5,287.5C 540.5,272.167 540.5,256.833 540.5,241.5 Z"/></g>
<g><path style="opacity:1" fill="#fefffe" d="M 540.5,336.5 C 595.5,336.5 650.5,336.5 705.5,336.5C 705.5,351.833 705.5,367.167 705.5,382.5C 650.5,382.5 595.5,382.5 540.5,382.5C 540.5,367.167 540.5,351.833 540.5,336.5 Z"/></g>
<g><path style="opacity:1" fill="#fefffe" d="M 540.5,426.5 C 595.5,426.5 650.5,426.5 705.5,426.5C 705.5,441.833 705.5,457.167 705.5,472.5C 650.5,472.5 595.5,472.5 540.5,472.5C 540.5,457.167 540.5,441.833 540.5,426.5 Z"/></g>
<g><path style="opacity:1" fill="#fefffe" d="M 209.5,529.5 C 374.833,529.5 540.167,529.5 705.5,529.5C 705.5,544.833 705.5,560.167 705.5,575.5C 540.167,575.5 374.833,575.5 209.5,575.5C 209.5,560.167 209.5,544.833 209.5,529.5 Z"/></g>
<g><path style="opacity:1" fill="#fefffe" d="M 209.5,613.5 C 374.833,613.5 540.167,613.5 705.5,613.5C 705.5,628.833 705.5,644.167 705.5,659.5C 540.167,659.5 374.833,659.5 209.5,659.5C 209.5,644.167 209.5,628.833 209.5,613.5 Z"/></g>
<g><path style="opacity:1" fill="#fefffe" d="M 209.5,702.5 C 374.833,702.5 540.167,702.5 705.5,702.5C 705.5,717.833 705.5,733.167 705.5,748.5C 540.167,748.5 374.833,748.5 209.5,748.5C 209.5,733.167 209.5,717.833 209.5,702.5 Z"/></g>
<g><path style="opacity:1" fill="#fefffe" d="M 209.5,789.5 C 301.167,789.5 392.833,789.5 484.5,789.5C 484.5,804.833 484.5,820.167 484.5,835.5C 392.833,835.5 301.167,835.5 209.5,835.5C 209.5,820.167 209.5,804.833 209.5,789.5 Z"/></g>
<g><path style="opacity:1" fill="#fefffe" d="M 516.5,789.5 C 579.5,789.5 642.5,789.5 705.5,789.5C 705.5,831.833 705.5,874.167 705.5,916.5C 642.5,916.5 579.5,916.5 516.5,916.5C 516.5,874.167 516.5,831.833 516.5,789.5 Z"/></g>
<g><path style="opacity:1" fill="#fefffe" d="M 209.5,870.5 C 301.167,870.5 392.833,870.5 484.5,870.5C 484.5,885.833 484.5,901.167 484.5,916.5C 392.833,916.5 301.167,916.5 209.5,916.5C 209.5,901.167 209.5,885.833 209.5,870.5 Z"/></g>
</svg>
