<?xml version="1.0" encoding="UTF-8"?>
<!DOCTYPE svg PUBLIC "-//W3C//DTD SVG 1.1//EN" "http://www.w3.org/Graphics/SVG/1.1/DTD/svg11.dtd">
<svg xmlns="http://www.w3.org/2000/svg" version="1.1" width="1000px" height="1000px" style="shape-rendering:geometricPrecision; text-rendering:geometricPrecision; image-rendering:optimizeQuality; fill-rule:evenodd; clip-rule:evenodd" xmlns:xlink="http://www.w3.org/1999/xlink">
<g><path style="opacity:0.968" fill="#fefffe" d="M 426.5,113.5 C 428.604,113.201 430.604,113.534 432.5,114.5C 490.119,230.738 547.952,346.738 606,462.5C 611.905,474.478 617.405,486.644 622.5,499C 619.061,507.976 615.228,516.81 611,525.5C 595.354,556.125 579.687,586.792 564,617.5C 545.131,657.662 525.465,697.328 505,736.5C 480.909,786.027 456.742,835.36 432.5,884.5C 431.833,884.833 431.167,885.167 430.5,885.5C 412.856,876.874 395.19,868.207 377.5,859.5C 376.369,857.926 376.202,856.259 377,854.5C 436.331,736.262 495.165,617.595 553.5,498.5C 494.925,380.35 436.092,262.35 377,144.5C 376.192,142.421 376.359,140.421 377.5,138.5C 394.404,130.883 410.738,122.549 426.5,113.5 Z"/></g>
</svg>
