<?xml version="1.0" encoding="UTF-8"?>
<!DOCTYPE svg PUBLIC "-//W3C//DTD SVG 1.1//EN" "http://www.w3.org/Graphics/SVG/1.1/DTD/svg11.dtd">
<svg xmlns="http://www.w3.org/2000/svg" version="1.1" width="1000px" height="1000px" style="shape-rendering:geometricPrecision; text-rendering:geometricPrecision; image-rendering:optimizeQuality; fill-rule:evenodd; clip-rule:evenodd" xmlns:xlink="http://www.w3.org/1999/xlink">
<g><path style="opacity:0.968" fill="#fefefe" d="M 566.5,113.5 C 567.873,113.343 569.207,113.51 570.5,114C 587.19,123.012 604.19,131.512 621.5,139.5C 622.631,141.074 622.798,142.741 622,144.5C 562.669,262.738 503.835,381.405 445.5,500.5C 504.075,618.65 562.908,736.65 622,854.5C 622.808,856.579 622.641,858.579 621.5,860.5C 604.088,868.974 586.755,877.307 569.5,885.5C 568.5,885.167 567.5,884.833 566.5,884.5C 508.881,768.262 451.048,652.262 393,536.5C 387.095,524.522 381.595,512.356 376.5,500C 379.939,491.024 383.772,482.19 388,473.5C 403.646,442.875 419.313,412.208 435,381.5C 440.409,369.016 446.076,356.683 452,344.5C 491.144,268.21 529.311,191.21 566.5,113.5 Z"/></g>
</svg>
