<?xml version="1.0" encoding="UTF-8"?>
<!DOCTYPE svg PUBLIC "-//W3C//DTD SVG 1.1//EN" "http://www.w3.org/Graphics/SVG/1.1/DTD/svg11.dtd">
<svg xmlns="http://www.w3.org/2000/svg" version="1.1" width="4000px" height="3000px" style="shape-rendering:geometricPrecision; text-rendering:geometricPrecision; image-rendering:optimizeQuality; fill-rule:evenodd; clip-rule:evenodd" xmlns:xlink="http://www.w3.org/1999/xlink">
<g><path style="opacity:1" fill="#fefffe" d="M 2183.5,552.5 C 2185.17,552.5 2186.83,552.5 2188.5,552.5C 2163.92,1106.21 2138.59,1659.88 2112.5,2213.5C 2182.42,2352.6 2252.59,2491.6 2323,2630.5C 2323.49,2632.13 2323.66,2633.8 2323.5,2635.5C 2321.8,2635.66 2320.13,2635.49 2318.5,2635C 2218.1,2538.05 2117.6,2441.22 2017,2344.5C 2016.33,2334.83 2016.33,2325.17 2017,2315.5C 2039.5,1787.51 2061.5,1259.51 2083,731.5C 2047.52,746.662 2012.02,761.829 1976.5,777C 1973.38,778.727 1970.05,779.561 1966.5,779.5C 1966.34,777.473 1966.5,775.473 1967,773.5C 2039.37,699.965 2111.54,626.298 2183.5,552.5 Z"/></g>
<g><path style="opacity:1" fill="#fefffe" d="M 731.5,588.5 C 734.044,588.104 736.211,588.771 738,590.5C 883.273,816.769 1028.94,1042.77 1175,1268.5C 1176.25,1271.01 1176.75,1273.68 1176.5,1276.5C 1174.8,1276.66 1173.13,1276.49 1171.5,1276C 1040.25,1196.79 908.749,1117.96 777,1039.5C 744.333,1093.5 711.667,1147.5 679,1201.5C 678.48,1203.29 678.813,1204.96 680,1206.5C 827.578,1409.32 974.911,1612.32 1122,1815.5C 1122.87,1816.87 1123.37,1818.37 1123.5,1820C 1121.04,1823.13 1118.54,1826.3 1116,1829.5C 971.137,1977.36 826.637,2125.53 682.5,2274C 679.682,2274.84 677.516,2274.01 676,2271.5C 523.085,2042.67 370.419,1813.67 218,1584.5C 217.333,1580.17 217.333,1575.83 218,1571.5C 227.995,1494.21 237.329,1416.87 246,1339.5C 195.362,1413.64 144.529,1487.64 93.5,1561.5C 91.9547,1562.45 90.288,1562.79 88.5,1562.5C 88.3379,1560.47 88.5045,1558.47 89,1556.5C 155.667,1423.17 222.333,1289.83 289,1156.5C 290.699,1155.59 292.533,1155.26 294.5,1155.5C 291.872,1290.84 289.372,1426.18 287,1561.5C 417.167,1715.67 547.333,1869.83 677.5,2024C 678.332,2024.69 678.998,2024.52 679.5,2023.5C 745.414,1910 811.581,1796.67 878,1683.5C 879.187,1681.96 879.52,1680.29 879,1678.5C 719.694,1517.53 560.028,1356.86 400,1196.5C 397.457,1193.3 394.957,1190.13 392.5,1187C 503.61,1028.64 615.11,870.469 727,712.5C 728.611,671.168 730.111,629.835 731.5,588.5 Z"/></g>
<g><path style="opacity:1" fill="#fefffe" d="M 265.5,661.5 C 267.199,661.34 268.866,661.506 270.5,662C 328.833,714.333 387.167,766.667 445.5,819C 460.273,818.487 474.939,816.82 489.5,814C 480.5,808.167 471.5,802.333 462.5,796.5C 461.167,794.5 461.167,792.5 462.5,790.5C 505.011,768.744 547.678,747.244 590.5,726C 592.473,725.505 594.473,725.338 596.5,725.5C 596.702,727.989 596.202,730.323 595,732.5C 549.301,808.703 503.801,885.036 458.5,961.5C 456.5,962.833 454.5,962.833 452.5,961.5C 390.333,863.167 328.167,764.833 266,666.5C 265.506,664.866 265.34,663.199 265.5,661.5 Z"/></g>
<g><path style="opacity:1" fill="#fefffe" d="M 3125.5,666.5 C 3128.27,666.421 3130.94,666.921 3133.5,668C 3192.84,691.113 3252.01,714.613 3311,738.5C 3311.49,740.134 3311.66,741.801 3311.5,743.5C 3279.68,754.832 3248.01,766.665 3216.5,779C 3213.59,780.318 3210.59,780.652 3207.5,780C 3180.67,744.5 3153.83,709 3127,673.5C 3125.8,671.323 3125.3,668.989 3125.5,666.5 Z"/></g>
<g><path style="opacity:1" fill="#fefffe" d="M 3265.5,808.5 C 3275.5,808.5 3285.5,808.5 3295.5,808.5C 3302.75,1289.51 3310.41,1770.51 3318.5,2251.5C 3318.17,2259.17 3317.83,2266.83 3317.5,2274.5C 3264.5,2302.33 3211.5,2330.17 3158.5,2358C 3156.5,2358.67 3154.5,2358.67 3152.5,2358C 3018.5,2250.67 2884.5,2143.33 2750.5,2036C 2746.34,2033.54 2745.68,2030.54 2748.5,2027C 2806.81,2009.06 2865.14,1991.23 2923.5,1973.5C 2985.72,2002.61 3047.72,2032.28 3109.5,2062.5C 3110.45,2064.05 3110.79,2065.71 3110.5,2067.5C 3052.15,2062.33 2993.81,2057.16 2935.5,2052C 2991.33,2109.83 3047.17,2167.67 3103,2225.5C 3117.35,2240.01 3131.85,2254.35 3146.5,2268.5C 3170.98,2219.53 3195.48,2170.53 3220,2121.5C 3199.27,1702.31 3177.77,1283.14 3155.5,864C 3155.37,862.019 3154.7,860.353 3153.5,859C 3108.17,845 3062.83,831 3017.5,817C 3015.81,815.599 3015.14,813.766 3015.5,811.5C 3099,810.832 3182.33,809.832 3265.5,808.5 Z"/></g>
<g><path style="opacity:1" fill="#fefffe" d="M 1253.5,843.5 C 1294.17,843.5 1334.83,843.5 1375.5,843.5C 1350.22,1141.53 1325.05,1439.53 1300,1737.5C 1372.96,1648.87 1446.29,1560.54 1520,1472.5C 1520.48,1471.55 1520.65,1470.55 1520.5,1469.5C 1503.76,1464.98 1487.1,1460.15 1470.5,1455C 1468.81,1453.6 1468.14,1451.77 1468.5,1449.5C 1533.16,1444.78 1597.83,1440.12 1662.5,1435.5C 1662.66,1437.2 1662.49,1438.87 1662,1440.5C 1566.67,1539.17 1471.33,1637.83 1376,1736.5C 1376.02,1739.57 1376.68,1742.57 1378,1745.5C 1401.81,1806.61 1425.81,1867.61 1450,1928.5C 1450.5,1930.47 1450.66,1932.47 1450.5,1934.5C 1448.8,1934.66 1447.13,1934.49 1445.5,1934C 1406.47,1897.3 1367.13,1860.97 1327.5,1825C 1318.17,1824.33 1308.83,1824.33 1299.5,1825C 1289.69,1833.31 1280.02,1841.81 1270.5,1850.5C 1262.59,1902.75 1255.26,1955.09 1248.5,2007.5C 1246.53,2007.74 1244.7,2007.41 1243,2006.5C 1240.53,1962.15 1237.86,1917.82 1235,1873.5C 1206.98,1902.68 1179.15,1932.02 1151.5,1961.5C 1149.95,1962.45 1148.29,1962.79 1146.5,1962.5C 1147.22,1956.04 1149.39,1950.04 1153,1944.5C 1170.33,1911.83 1187.67,1879.17 1205,1846.5C 1220,1831.5 1235,1816.5 1250,1801.5C 1255.34,1493.84 1260.17,1186.17 1264.5,878.5C 1221.11,869.089 1177.78,859.423 1134.5,849.5C 1134.5,847.833 1134.5,846.167 1134.5,844.5C 1174.34,844.832 1214,844.499 1253.5,843.5 Z"/></g>
<g><path style="opacity:1" fill="#fefffe" d="M 2516.5,1052.5 C 2520.66,1052.14 2523.83,1053.81 2526,1057.5C 2679.62,1242.13 2833.62,1426.46 2988,1610.5C 2988.5,1517.17 2988.67,1423.83 2988.5,1330.5C 2970.56,1334.82 2952.56,1338.82 2934.5,1342.5C 2934.34,1340.47 2934.5,1338.47 2935,1336.5C 2961.86,1305.28 2988.36,1273.78 3014.5,1242C 3016.47,1241.5 3018.47,1241.34 3020.5,1241.5C 3061.28,1484.48 3101.94,1727.48 3142.5,1970.5C 3138.73,1971.18 3135.89,1969.84 3134,1966.5C 3085.37,1910.2 3036.37,1854.2 2987,1798.5C 2986.67,1759.17 2986.33,1719.83 2986,1680.5C 2879.67,1559.5 2773.33,1438.5 2667,1317.5C 2668.96,1484.84 2671.8,1652.18 2675.5,1819.5C 2702.74,1816.33 2730.08,1813.99 2757.5,1812.5C 2757.66,1814.2 2757.49,1815.87 2757,1817.5C 2697.31,1893.69 2637.81,1970.02 2578.5,2046.5C 2576.95,2047.45 2575.29,2047.79 2573.5,2047.5C 2586.43,1786.51 2598.93,1525.51 2611,1264.5C 2580.33,1197.17 2549.67,1129.83 2519,1062.5C 2517.27,1059.38 2516.44,1056.05 2516.5,1052.5 Z"/></g>
<g><path style="opacity:1" fill="#fefffe" d="M 3823.5,1221.5 C 3825.17,1221.5 3826.83,1221.5 3828.5,1221.5C 3825.54,1460.82 3823.21,1700.15 3821.5,1939.5C 3819.5,1939.5 3817.5,1939.5 3815.5,1939.5C 3787.5,1863.01 3759,1786.68 3730,1710.5C 3732.68,1676.39 3736.51,1642.39 3741.5,1608.5C 3707.83,1609.74 3674.16,1609.74 3640.5,1608.5C 3640.14,1606.23 3640.81,1604.4 3642.5,1603C 3677.1,1592.52 3711.76,1582.35 3746.5,1572.5C 3751.33,1520.53 3755.5,1468.53 3759,1416.5C 3706.33,1471.83 3653.67,1527.17 3601,1582.5C 3610.5,1654.52 3620.5,1726.52 3631,1798.5C 3631.67,1801.5 3631.67,1804.5 3631,1807.5C 3576.33,1882.17 3521.67,1956.83 3467,2031.5C 3465.3,2032.41 3463.47,2032.74 3461.5,2032.5C 3471.74,1991.29 3482.9,1950.29 3495,1909.5C 3495.17,1907.17 3495.33,1904.83 3495.5,1902.5C 3487.6,1797.51 3479.93,1692.51 3472.5,1587.5C 3434.54,1598.38 3396.54,1609.04 3358.5,1619.5C 3358.2,1617.4 3358.53,1615.4 3359.5,1613.5C 3513.92,1482.41 3668.58,1351.74 3823.5,1221.5 Z"/></g>
<g><path style="opacity:1" fill="#fefffe" d="M 2399.5,1257.5 C 2401.79,1257.24 2403.96,1257.58 2406,1258.5C 2452.9,1341.37 2499.73,1424.2 2546.5,1507C 2483.42,1606.93 2420.09,1706.76 2356.5,1806.5C 2354.65,1807.76 2352.81,1807.76 2351,1806.5C 2301.75,1705.17 2252.92,1603.67 2204.5,1502C 2205.2,1499.62 2206.37,1497.45 2208,1495.5C 2272.57,1416.65 2336.4,1337.32 2399.5,1257.5 Z M 2394.5,1354.5 C 2395.5,1354.47 2396.16,1354.97 2396.5,1356C 2413.64,1408.42 2430.97,1460.76 2448.5,1513C 2418.94,1534.22 2389.11,1555.06 2359,1575.5C 2335.79,1555.29 2312.29,1535.46 2288.5,1516C 2324.48,1462.54 2359.81,1408.7 2394.5,1354.5 Z"/></g>
<g><path style="opacity:1" fill="#fefffe" d="M 1905.5,1348.5 C 1907.17,1348.5 1908.83,1348.5 1910.5,1348.5C 1905.88,1581.5 1901.21,1814.5 1896.5,2047.5C 1894.8,2047.66 1893.13,2047.49 1891.5,2047C 1863.61,1973.34 1836.11,1899.5 1809,1825.5C 1812.94,1791.41 1817.78,1757.41 1823.5,1723.5C 1789.5,1723.5 1755.5,1723.17 1721.5,1722.5C 1721.14,1720.23 1721.81,1718.4 1723.5,1717C 1759.6,1706.47 1795.6,1695.63 1831.5,1684.5C 1832.67,1638.17 1832.83,1591.84 1832,1545.5C 1780.96,1600.87 1730.3,1656.53 1680,1712.5C 1690.23,1777.57 1701.23,1842.57 1713,1907.5C 1713.67,1910.17 1713.67,1912.83 1713,1915.5C 1656.33,1989.5 1599.67,2063.5 1543,2137.5C 1541.3,2138.41 1539.47,2138.74 1537.5,2138.5C 1537.34,2136.14 1537.5,2133.81 1538,2131.5C 1553.07,2085.46 1568.23,2039.46 1583.5,1993.5C 1573.41,1899.22 1563.57,1804.88 1554,1710.5C 1552.93,1708.72 1551.43,1708.22 1549.5,1709C 1517,1719.56 1484.33,1729.39 1451.5,1738.5C 1450.96,1735.35 1451.96,1732.85 1454.5,1731C 1605.28,1603.96 1755.61,1476.46 1905.5,1348.5 Z"/></g>
</svg>
